# Alias OBJ Model File
# Exported from SketchUp, (c) 2000-2012 Trimble Navigation Limited
# File units = meters

mtllib Untitled.mtl

g Mesh1 Model

usemtl FrontColor
v -0.25405 0.0706 0.440028
vt 2.61104 2.77953
vn -0.5 0 0.866025
v -0.359281 0.0706 0.359281
vt -2.61104 2.77953
vn -0.707107 0 0.707107
v -0.359281 -0.0747 0.359281
vt -2.61104 -2.94094
v -0.25405 -0.0747 0.440028
vt 2.61104 -2.94094
f 1/1/1 2/2/2 3/3/2 4/4/1 

vt -2.61104 -14.6263
vn -0.40432 0.820396 0.40432
vt 2.61104 -14.6263
vn -0.285898 0.820396 0.495189
v -0.218898 0.1196 0.379143
vt 2.24976 -11.2719
v -0.309569 0.1196 0.309569
vt -2.24976 -11.2719
f 2/5/3 1/6/4 5/7/4 6/8/3 

v -0.131506 0.0706 0.490787
vn -0.147991 0.820396 0.552312
v -0.11331 0.1196 0.422879
f 1/5/4 7/6/5 8/7/5 5/8/4 

vn -0.258819 0 0.965926
v -0.131506 -0.0747 0.490787
f 7/1/6 1/2/1 4/3/1 9/4/6 

vt -2.61104 14.6539
vn -0.282305 -0.825357 0.488967
v -0.218898 -0.122794 0.379143
vt -2.24976 11.3199
v -0.11331 -0.122794 0.422879
vt 2.24976 11.3199
vn -0.146132 -0.825357 0.545372
vt 2.61104 14.6539
f 4/9/7 10/10/7 11/11/8 9/12/8 

vn -0.39924 -0.825357 0.39924
v -0.309569 -0.122794 0.309569
f 3/9/9 12/10/9 10/11/7 4/12/7 

v -0.440028 -0.0747 0.25405
vn -0.488967 -0.825357 0.282305
v -0.379143 -0.122794 0.218898
f 13/9/10 14/10/10 12/11/9 3/12/9 

v -0.490787 -0.0747 0.131506
vn -0.545372 -0.825357 0.146132
v -0.422879 -0.122794 0.11331
f 15/9/11 16/10/11 14/11/10 13/12/10 

v -0.5081 -0.0747 -3.11122e-17
vn -0.564611 -0.825357 4.17482e-17
v -0.437796 -0.122794 -9.02389e-17
f 17/9/12 18/10/12 16/11/11 15/12/11 

v -0.490787 -0.0747 -0.131506
vn -0.545372 -0.825357 -0.146132
v -0.422879 -0.122794 -0.11331
f 17/12/12 19/9/13 20/10/13 18/11/12 

v -0.5081 0.0706 -3.11122e-17
vn -1 0 8.39852e-17
v -0.490787 0.0706 -0.131506
vn -0.965926 0 -0.258819
f 21/1/14 22/2/15 19/3/15 17/4/14 

vn -0.571795 0.820396 1.39171e-17
v -0.437796 0.1196 -9.02389e-17
v -0.422879 0.1196 -0.11331
vn -0.552312 0.820396 -0.147991
f 21/6/16 23/7/16 24/8/17 22/5/17 

v -0.490787 0.0706 0.131506
vn -0.552312 0.820396 0.147991
v -0.422879 0.1196 0.11331
f 21/5/16 25/6/18 26/7/18 23/8/16 

vn -0.965926 0 0.258819
f 25/1/19 21/2/14 17/3/14 15/4/19 

v -0.440028 0.0706 0.25405
vn -0.866025 0 0.5
f 27/1/20 25/2/19 15/3/19 13/4/20 

vn -0.495189 0.820396 0.285898
v -0.379143 0.1196 0.218898
f 25/5/18 27/6/21 28/7/21 26/8/18 

f 27/5/21 2/6/3 6/7/3 28/8/21 

f 2/1/2 27/2/20 13/3/20 3/4/2 

v -0.309569 0.1503 0.309569
vt 2.24976 5.91732
vn -0.707107 -2.17379e-15 0.707107
v -0.379143 0.1503 0.218898
vt -2.24976 5.91732
vn -0.866025 -4.83803e-15 0.5
vt -2.24976 4.70866
vt 2.24976 4.70866
f 29/13/22 30/14/23 28/15/23 6/16/22 

v -0.422879 0.1503 -0.11331
vt -16.6488 4.46102
vn 0 1 -0
v -0.437796 0.1503 -9.02389e-17
vt -17.2361 3.55271e-15
v -0.422879 0.1503 0.11331
vt -16.6488 -4.46102
vt -14.9269 -8.61803
vt -12.1877 -12.1877
v -0.218898 0.1503 0.379143
vt -8.61803 -14.9269
v -0.11331 0.1503 0.422879
vt -4.46102 -16.6488
v 5.86553e-16 0.1503 0.437796
vt 2.30926e-14 -17.2361
v 0.11331 0.1503 0.422879
vt 4.46102 -16.6488
v 0.218898 0.1503 0.379143
vt 8.61803 -14.9269
v 0.309569 0.1503 0.309569
vt 12.1877 -12.1877
v 0.379143 0.1503 0.218898
vt 14.9269 -8.61803
v 0.422879 0.1503 0.11331
vt 16.6488 -4.46102
v 0.437796 0.1503 -4.51195e-16
vt 17.2361 1.77636e-14
v 0.422879 0.1503 -0.11331
vt 16.6488 4.46102
v 0.379143 0.1503 -0.218898
vt 14.9269 8.61803
v 0.309569 0.1503 -0.309569
vt 12.1877 12.1877
v 0.218898 0.1503 -0.379143
vt 8.61803 14.9269
v 0.11331 0.1503 -0.422879
vt 4.46102 16.6488
v -3.15836e-16 0.1503 -0.437796
vt -1.24345e-14 17.2361
v -0.11331 0.1503 -0.422879
vt -4.46102 16.6488
v -0.218898 0.1503 -0.379143
vt -8.61803 14.9269
v -0.309569 0.1503 -0.309569
vt -12.1877 12.1877
v -0.379143 0.1503 -0.218898
vt -14.9269 8.61803
f 31/17/24 32/18/24 33/19/24 30/20/24 29/21/24 34/22/24 35/23/24 36/24/24 37/25/24 38/26/24 39/27/24 40/28/24 41/29/24 42/30/24 43/31/24 44/32/24 45/33/24 46/34/24 47/35/24 48/36/24 49/37/24 50/38/24 51/39/24 52/40/24 

vn -1 -7.99348e-15 5.59902e-17
vn -0.965926 -7.26373e-15 -0.258819
f 32/13/25 31/14/26 24/15/26 23/16/25 

vn -0.866025 -4.83803e-15 -0.5
v -0.379143 0.1196 -0.218898
f 31/13/26 52/14/27 53/15/27 24/16/26 

vn -0.707107 -2.17379e-15 -0.707107
v -0.309569 0.1196 -0.309569
f 52/13/27 51/14/28 54/15/28 53/16/27 

vn -0.5 -7.92203e-16 -0.866025
v -0.218898 0.1196 -0.379143
f 54/16/28 51/13/28 50/14/29 55/15/29 

vn -0.258819 -1.89452e-16 -0.965926
v -0.11331 0.1196 -0.422879
f 55/16/29 50/13/29 49/14/30 56/15/30 

vn -7.27872e-16 0 -1
v -3.15836e-16 0.1196 -0.437796
f 56/16/30 49/13/30 48/14/31 57/15/31 

vn 0.258819 1.89452e-16 -0.965926
v 0.11331 0.1196 -0.422879
f 57/16/31 48/13/31 47/14/32 58/15/32 

vn 0.5 7.92203e-16 -0.866025
v 0.218898 0.1196 -0.379143
f 58/16/32 47/13/32 46/14/33 59/15/33 

vn 0.707107 1.44438e-15 -0.707107
v 0.309569 0.1196 -0.309569
f 59/16/33 46/13/33 45/14/34 60/15/34 

v 0.379143 0.1196 -0.218898
vn 0.866025 1.29901e-15 -0.5
f 61/15/35 60/16/34 45/13/34 44/14/35 

vn 0.40432 0.820396 -0.40432
vn 0.495189 0.820396 -0.285898
v 0.440028 0.0706 -0.25405
v 0.359281 0.0706 -0.359281
f 60/7/36 61/8/37 62/5/37 63/6/36 

v 0.422879 0.1196 -0.11331
vn 0.552312 0.820396 -0.147991
v 0.490787 0.0706 -0.131506
f 61/7/37 64/8/38 65/5/38 62/6/37 

vn 0.965926 2.43822e-15 -0.258819
f 64/15/39 61/16/35 44/13/35 43/14/39 

v 0.437796 0.1196 -4.51195e-16
vn 1 3.97921e-15 6.85879e-16
f 66/15/40 64/16/39 43/13/39 42/14/40 

vn 0.571795 0.820396 2.78341e-16
v 0.5081 0.0706 9.33365e-17
f 64/7/38 66/8/41 67/5/41 65/6/38 

v 0.422879 0.1196 0.11331
vn 0.552312 0.820396 0.147991
v 0.490787 0.0706 0.131506
f 68/8/42 69/5/42 67/6/41 66/7/41 

v 0.379143 0.1196 0.218898
vn 0.495189 0.820396 0.285898
v 0.440028 0.0706 0.25405
f 70/8/43 71/5/43 69/6/42 68/7/42 

v 0.309569 0.1196 0.309569
vn 0.40432 0.820396 0.40432
v 0.359281 0.0706 0.359281
f 72/8/44 73/5/44 71/6/43 70/7/43 

v 0.218898 0.1196 0.379143
vn 0.285898 0.820396 0.495189
v 0.25405 0.0706 0.440028
f 74/8/45 75/5/45 73/6/44 72/7/44 

v 0.11331 0.1196 0.422879
vn 0.147991 0.820396 0.552312
v 0.131506 0.0706 0.490787
f 76/8/46 77/5/46 75/6/45 74/7/45 

v -6.22243e-17 0.0706 0.5081
vn -4.87097e-17 0.820396 0.571795
v 5.86553e-16 0.1196 0.437796
f 78/5/47 77/6/46 76/7/46 79/8/47 

vn 0.258819 0 0.965926
vn -2.37958e-16 0 1
v -6.22243e-17 -0.0747 0.5081
v 0.131506 -0.0747 0.490787
f 77/1/48 78/2/49 80/3/49 81/4/48 

f 78/1/49 7/2/6 9/3/6 80/4/49 

f 7/5/5 78/6/47 79/7/47 8/8/5 

vn 0 0 1
vn -0.258819 -1.89452e-16 0.965926
f 79/16/50 36/13/50 35/14/51 8/15/51 

vn 0.258819 1.89452e-16 0.965926
f 76/16/52 37/13/52 36/14/50 79/15/50 

vn 0.5 7.92203e-16 0.866025
f 74/16/53 38/13/53 37/14/52 76/15/52 

vn 0.707107 1.44438e-15 0.707107
f 72/16/54 39/13/54 38/14/53 74/15/53 

vn 0.866025 1.29901e-15 0.5
f 72/15/54 70/16/55 40/13/55 39/14/54 

vn 0.965926 2.45575e-15 0.258819
f 70/15/55 68/16/56 41/13/56 40/14/55 

f 68/15/56 66/16/40 42/13/40 41/14/56 

vn -0.5 -7.92203e-16 0.866025
f 8/16/51 35/13/51 34/14/57 5/15/57 

f 5/16/57 34/13/57 29/14/22 6/15/22 

v 5.07594e-16 -0.122794 0.437796
vn -3.47902e-17 -0.825357 0.564611
f 9/9/8 11/10/8 82/11/58 80/12/58 

v 4.96314e-16 -0.156106 0.437796
vt 2.24976 -6.14593
vn -4.19926e-17 -1.37464e-14 1
vt 2.24976 -4.83439
vt -2.24976 -4.83439
vn -0.258819 -1.00481e-14 0.965926
v -0.11331 -0.156106 0.422879
vt -2.24976 -6.14593
f 83/41/59 82/42/59 11/43/60 84/44/60 

v 0.11331 -0.156106 0.422879
vn 0.258819 -1.17042e-14 0.965926
v 0.11331 -0.122794 0.422879
f 85/41/61 86/42/61 82/43/59 83/44/59 

v 0.218898 -0.156106 0.379143
vn 0.5 -5.11381e-15 0.866025
v 0.218898 -0.122794 0.379143
f 87/41/62 88/42/62 86/43/61 85/44/61 

v 0.309569 -0.156106 0.309569
vn 0.707107 6.523e-15 0.707107
v 0.309569 -0.122794 0.309569
f 89/41/63 90/42/63 88/43/62 87/44/62 

v 0.379143 -0.156106 0.218898
vn 0.866025 1.64404e-14 0.5
v 0.379143 -0.122794 0.218898
f 89/44/63 91/41/64 92/42/64 90/43/63 

v 0.309569 -0.156106 -0.309569
vn 0 -1 -0
v 0.379143 -0.156106 -0.218898
v 0.422879 -0.156106 -0.11331
v 0.437796 -0.156106 -4.96314e-16
vt -17.2361 1.95399e-14
v 0.422879 -0.156106 0.11331
vt -1.95399e-14 -17.2361
v -0.218898 -0.156106 0.379143
v -0.309569 -0.156106 0.309569
v -0.379143 -0.156106 0.218898
v -0.422879 -0.156106 0.11331
v -0.437796 -0.156106 -9.02389e-17
vt 17.2361 3.55271e-15
v -0.422879 -0.156106 -0.11331
v -0.379143 -0.156106 -0.218898
v -0.309569 -0.156106 -0.309569
v -0.218898 -0.156106 -0.379143
v -0.11331 -0.156106 -0.422879
v -3.15836e-16 -0.156106 -0.437796
vt 1.24345e-14 17.2361
v 0.11331 -0.156106 -0.422879
v 0.218898 -0.156106 -0.379143
f 93/39/65 94/40/65 95/17/65 96/45/65 97/19/65 91/20/65 89/21/65 87/22/65 85/23/65 83/46/65 84/25/65 98/26/65 99/27/65 100/28/65 101/29/65 102/47/65 103/31/65 104/32/65 105/33/65 106/34/65 107/35/65 108/48/65 109/37/65 110/38/65 

vn 0.866025 1.83095e-14 -0.5
vn 0.707107 5.49991e-15 -0.707107
v 0.309569 -0.122794 -0.309569
v 0.379143 -0.122794 -0.218898
f 94/44/66 93/41/67 111/42/67 112/43/66 

vn 0.5 3.20239e-15 -0.866025
v 0.218898 -0.122794 -0.379143
f 110/41/68 113/42/68 111/43/67 93/44/67 

vn 0.258819 1.00756e-14 -0.965926
v 0.11331 -0.122794 -0.422879
f 109/41/69 114/42/69 113/43/68 110/44/68 

vn -6.29889e-16 1.37464e-14 -1
v -3.15836e-16 -0.122794 -0.437796
f 108/41/70 115/42/70 114/43/69 109/44/69 

vn -0.258819 1.00756e-14 -0.965926
v -0.11331 -0.122794 -0.422879
f 107/41/71 116/42/71 115/43/70 108/44/70 

vn -0.5 3.20239e-15 -0.866025
v -0.218898 -0.122794 -0.379143
f 106/41/72 117/42/72 116/43/71 107/44/71 

vn -0.707107 0 -0.707107
v -0.309569 -0.122794 -0.309569
f 105/41/73 118/42/73 117/43/72 106/44/72 

v -0.379143 -0.122794 -0.218898
vn -0.866025 -3.25091e-15 -0.5
f 119/42/74 118/43/73 105/44/73 104/41/74 

v -0.440028 -0.0747 -0.25405
vn -0.488967 -0.825357 -0.282305
v -0.359281 -0.0747 -0.359281
vn -0.39924 -0.825357 -0.39924
f 120/12/75 121/9/76 118/10/76 119/11/75 

v -0.440028 0.0706 -0.25405
vn -0.866025 0 -0.5
v -0.359281 0.0706 -0.359281
f 122/1/77 123/2/73 121/3/73 120/4/77 

vn -0.495189 0.820396 -0.285898
vn -0.40432 0.820396 -0.40432
f 122/6/78 53/7/78 54/8/79 123/5/79 

f 22/6/17 24/7/17 53/8/78 122/5/78 

f 22/1/15 122/2/77 120/3/77 19/4/15 

f 19/12/13 120/9/75 119/10/75 20/11/13 

vn -0.965926 -1.01241e-14 -0.258819
f 20/42/80 119/43/74 104/44/74 103/41/80 

vn -1 -1.37464e-14 9.79828e-17
f 102/41/81 18/42/81 20/43/80 103/44/80 

vn -0.965926 -1.00756e-14 0.258819
f 16/42/82 18/43/81 102/44/81 101/41/82 

vn -0.866025 -3.20239e-15 0.5
f 14/42/83 16/43/82 101/44/82 100/41/83 

f 12/42/2 14/43/83 100/44/83 99/41/2 

vn -0.5 -3.20239e-15 0.866025
f 98/41/84 10/42/84 12/43/2 99/44/2 

f 84/41/60 11/42/60 10/43/84 98/44/84 

vn -0.285898 0.820396 -0.495189
v -0.25405 0.0706 -0.440028
f 123/6/79 54/7/79 55/8/85 124/5/85 

vn -0.147991 0.820396 -0.552312
v -0.131506 0.0706 -0.490787
f 124/6/85 55/7/85 56/8/86 125/5/86 

vn -1.11336e-16 0.820396 -0.571795
v 0 0.0706 -0.5081
f 125/6/86 56/7/86 57/8/87 126/5/87 

vn 0.147991 0.820396 -0.552312
v 0.131506 0.0706 -0.490787
f 57/7/87 58/8/88 127/5/88 126/6/87 

vn 0.285898 0.820396 -0.495189
v 0.25405 0.0706 -0.440028
f 58/7/88 59/8/89 128/5/89 127/6/88 

f 59/7/89 60/8/36 63/5/36 128/6/89 

vn 0.5 0 -0.866025
vn 0.707107 0 -0.707107
v 0.359281 -0.0747 -0.359281
v 0.25405 -0.0747 -0.440028
f 128/1/90 63/2/91 129/3/91 130/4/90 

vn 0.866025 0 -0.5
v 0.440028 -0.0747 -0.25405
f 63/1/91 62/2/92 131/3/92 129/4/91 

vn 0.965926 0 -0.258819
v 0.490787 -0.0747 -0.131506
f 62/1/92 65/2/93 132/3/93 131/4/92 

vn 1 0 4.61919e-16
v 0.5081 -0.0747 9.33365e-17
f 65/1/93 67/2/94 133/3/94 132/4/93 

vn 0.965926 0 0.258819
v 0.490787 -0.0747 0.131506
f 67/1/94 69/2/95 134/3/95 133/4/94 

vn 0.866025 0 0.5
v 0.440028 -0.0747 0.25405
f 69/1/95 71/2/96 135/3/96 134/4/95 

vn 0.707107 0 0.707107
v 0.359281 -0.0747 0.359281
f 71/1/96 73/2/97 136/3/97 135/4/96 

vn 0.5 0 0.866025
v 0.25405 -0.0747 0.440028
f 73/1/97 75/2/98 137/3/98 136/4/97 

f 75/1/98 77/2/48 81/3/48 137/4/98 

vn 0.146132 -0.825357 0.545372
vn 0.282305 -0.825357 0.488967
f 86/10/99 88/11/100 137/12/100 81/9/99 

vn 0.39924 -0.825357 0.39924
f 88/10/100 90/11/101 136/12/101 137/9/100 

vn 0.488967 -0.825357 0.282305
f 90/10/101 92/11/102 135/12/102 136/9/101 

v 0.422879 -0.122794 0.11331
vn 0.545372 -0.825357 0.146132
f 92/10/102 138/11/103 134/12/103 135/9/102 

vn 0.965926 1.99169e-14 0.258819
f 91/44/64 97/41/104 138/42/104 92/43/64 

vn 1 2.40561e-14 3.07946e-16
v 0.437796 -0.122794 -4.96314e-16
f 97/44/104 96/41/105 139/42/105 138/43/104 

vn 0.965926 2.65559e-14 -0.258819
v 0.422879 -0.122794 -0.11331
f 96/44/105 95/41/106 140/42/106 139/43/105 

f 95/44/106 94/41/66 112/42/66 140/43/106 

vn 0.488967 -0.825357 -0.282305
vn 0.545372 -0.825357 -0.146132
f 112/11/107 131/12/107 132/9/108 140/10/108 

vn 0.39924 -0.825357 -0.39924
f 111/11/109 129/12/109 131/9/107 112/10/107 

vn 0.282305 -0.825357 -0.488967
f 113/11/110 130/12/110 129/9/109 111/10/109 

vn 0.146132 -0.825357 -0.545372
v 0.131506 -0.0747 -0.490787
f 114/11/111 141/12/111 130/9/110 113/10/110 

vn -1.04371e-16 -0.825357 -0.564611
v 0 -0.0747 -0.5081
f 115/11/112 142/12/112 141/9/111 114/10/111 

v -0.131506 -0.0747 -0.490787
vn -0.146132 -0.825357 -0.545372
f 143/12/113 142/9/112 115/10/112 116/11/113 

vn -0.258819 0 -0.965926
vn 1.53973e-16 0 -1
f 125/1/114 126/2/115 142/3/115 143/4/114 

vn 0.258819 0 -0.965926
f 126/1/115 127/2/116 141/3/116 142/4/115 

f 127/1/116 128/2/90 130/3/90 141/4/116 

vn -0.5 0 -0.866025
v -0.25405 -0.0747 -0.440028
f 124/1/117 125/2/114 143/3/114 144/4/117 

vn -0.282305 -0.825357 -0.488967
f 144/12/118 143/9/113 116/10/113 117/11/118 

f 121/12/76 144/9/118 117/10/118 118/11/76 

f 123/1/73 124/2/117 144/3/117 121/4/73 

vn 0.564611 -0.825357 1.25245e-16
f 140/11/108 132/12/108 133/9/119 139/10/119 

f 138/10/103 139/11/119 133/12/119 134/9/103 

f 80/9/58 82/10/58 86/11/99 81/12/99 

vn -0.965926 -7.26373e-15 0.258819
f 33/13/120 32/14/25 23/15/25 26/16/120 

f 30/13/23 33/14/120 26/15/120 28/16/23 

