# Alias OBJ Model File
# Exported from SketchUp, (c) 2000-2012 Trimble Navigation Limited
# File units = meters

mtllib strut-1.mtl

g Mesh1 Model

usemtl FrontColor
v 0.0539 -0.0423049 0.00668798
vt 0.263306 -1.66555
vn -1 0 -0
v 0.0539 -0.0379295 0.0129202
vt 0.508669 -1.49329
v 0.0539 -0.0179295 0.0129202
vt 0.508669 -0.705887
v 0.0539 -0.0179295 -0.0129202
vt -0.508669 -0.705887
v 0.0539 -0.0379295 -0.0129202
vt -0.508669 -1.49329
v 0.0539 -0.0423049 -0.00668798
vt -0.263306 -1.66555
v 0.0539 -0.0437973 9.00594e-18
vt 3.54565e-16 -1.7243
f 1/1/1 2/2/1 3/3/1 4/4/1 5/5/1 6/6/1 7/7/1 

v 0.0539 0.0309693 0.0182719
vt 0.719366 1.21927
v 0.0539 0.0379295 0.0129202
vt 0.508669 1.49329
v 0.0539 0.0167295 0.0129202
vt 0.508669 0.658643
v 0.0539 0.0167295 -0.0129202
vt -0.508669 0.658643
v 0.0539 0.0379295 -0.0129202
vt -0.508669 1.49329
v 0.0539 0.0309693 -0.0182719
vt -0.719366 1.21927
v 0.0539 0.0218986 -0.0223784
vt -0.88104 0.862151
v 0.0539 0.0113356 -0.0249599
vt -0.982673 0.446282
v 0.0539 -5.36362e-18 -0.0258404
vt -1.01734 -2.11166e-16
v 0.0539 -0.0113356 -0.0249599
vt -0.982673 -0.446282
v 0.0539 -0.0218986 -0.0223784
vt -0.88104 -0.862151
v 0.0539 -0.0309693 -0.0182719
vt -0.719366 -1.21927
v 0.0539 -0.0309693 0.0182719
vt 0.719366 -1.21927
v 0.0539 -0.0218986 0.0223784
vt 0.88104 -0.862151
v 0.0539 -0.0113356 0.0249599
vt 0.982673 -0.446282
v 0.0539 0 0.0258404
vt 1.01734 0
v 0.0539 0.0113356 0.0249599
vt 0.982673 0.446282
v 0.0539 0.0218986 0.0223784
vt 0.88104 0.862151
f 8/8/1 9/9/1 10/10/1 11/11/1 12/12/1 13/13/1 14/14/1 15/15/1 16/16/1 17/17/1 18/18/1 19/19/1 5/5/1 4/4/1 3/3/1 2/2/1 20/20/1 21/21/1 22/22/1 23/23/1 24/24/1 25/25/1 

vt 2.12205 0.873746
vn 0 0.609547 0.79275
vt 2.12205 0.528084
vn 0 0.514396 0.857553
v 0.3761 0.0309693 0.0182719
vt 14.8071 0.528084
v 0.3761 0.0379295 0.0129202
vt 14.8071 0.873746
f 9/26/2 8/27/3 26/28/3 27/29/2 

vt 2.12205 0.814054
vt 2.12205 0.422047
vn 0 0.326314 0.945261
v 0.3761 0.0218986 0.0223784
vt 14.8071 0.422047
vt 14.8071 0.814054
f 8/30/3 25/31/4 28/32/4 26/33/3 

vt 2.12205 0.628345
vt 2.12205 0.200238
vn 1.91672e-19 0.15794 0.987449
v 0.3761 0.0113356 0.0249599
vt 14.8071 0.200238
vt 14.8071 0.628345
f 25/34/4 24/35/5 29/36/5 28/37/4 

vt 2.12205 0.368842
vt 2.12205 -0.0787844
vn -2.12909e-20 4.87186e-16 1
v 0.0787999 9.65021e-18 0.0258404
vt 3.10236 -0.0787844
v 0.3761 1.22426e-29 0.0258404
vt 14.8071 -0.0787844
vt 14.8071 0.368842
f 24/38/5 23/39/6 30/40/6 31/41/6 29/42/5 

vt 2.12205 0.0787844
vt 2.12205 -0.368842
vn -2.12969e-19 -0.15794 0.987449
v 0.3761 -0.0113356 0.0249599
vt 14.8071 -0.368842
vt 14.8071 0.0787844
vt 3.10236 0.0787844
f 23/43/6 22/44/7 32/45/7 31/46/6 30/47/6 

vt 2.12205 -0.200238
vt 2.12205 -0.628345
vn 0 -0.326314 0.945261
v 0.3761 -0.0218986 0.0223784
vt 14.8071 -0.628345
vt 14.8071 -0.200238
f 22/48/7 21/49/8 33/50/8 32/51/7 

vt 2.12205 -0.422047
vt 2.12205 -0.814054
vn 0 -0.514396 0.857553
v 0.3761 -0.0309693 0.0182719
vt 14.8071 -0.814054
vt 14.8071 -0.422047
f 21/52/8 20/53/9 34/54/9 33/55/8 

vt 2.12205 -0.528084
vt 2.12205 -0.873746
vn 0 -0.609547 0.79275
v 0.3761 -0.0379295 0.0129202
vt 14.8071 -0.873746
vt 14.8071 -0.528084
f 20/56/9 2/57/10 35/58/10 34/59/9 

vt -14.8071 -1.49329
vn 0 -1.51953e-16 -1
vt -2.12205 -1.49329
vt -2.12205 -0.705887
v 0.3761 -0.0179295 0.0129202
vt -14.8071 -0.705887
f 35/60/11 2/61/11 3/62/11 36/63/11 

v 0.3761 -0.0179295 -0.0129202
vt -14.8071 0.508669
vn 0 -1 4.36521e-16
vt -14.8071 -0.508669
vt -2.12205 -0.508669
vt -2.12205 0.508669
f 37/64/12 36/65/12 3/66/12 4/67/12 

v 0.3761 0.0309693 -0.0182719
vn 1 0 -0
v 0.3761 0.0379295 -0.0129202
v 0.3761 0.0167295 -0.0129202
v 0.3761 0.0167295 0.0129202
vt -1.01734 4.81994e-28
v 0.3761 -0.0379295 -0.0129202
v 0.3761 -0.0309693 -0.0182719
v 0.3761 -0.0218986 -0.0223784
v 0.3761 -0.0113356 -0.0249599
v 0.3761 -5.36362e-18 -0.0258404
vt 1.01734 -2.11166e-16
v 0.3761 0.0113356 -0.0249599
v 0.3761 0.0218986 -0.0223784
f 38/8/13 39/9/13 40/10/13 41/11/13 27/12/13 26/13/13 28/14/13 29/15/13 31/68/13 32/17/13 33/18/13 34/19/13 35/5/13 36/4/13 37/3/13 42/2/13 43/20/13 44/21/13 45/22/13 46/69/13 47/24/13 48/25/13 

vt -2.12205 0.528084
vn 0 0.514396 -0.857553
vt -2.12205 0.873746
vn 0 0.609547 -0.79275
vt -14.8071 0.873746
vt -14.8071 0.528084
f 13/70/14 12/71/15 39/72/15 38/73/14 

vt 14.8071 1.49329
vn 0 4.55859e-16 1
vt 2.12205 1.49329
vt 2.12205 0.658643
vt 14.8071 0.658643
f 39/74/16 12/75/16 11/76/16 40/77/16 

v 0.0539 0.0423049 -0.00668798
vt -0.263306 1.66555
v 0.0539 0.0423049 0.00668798
vt 0.263306 1.66555
v 0.0539 0.0437973 1.93487e-18
vt 7.61761e-17 1.7243
f 49/78/1 12/12/1 11/11/1 10/10/1 9/9/1 50/79/1 51/80/1 

vt 2.12205 0.508669
vn 0 1 -1.30956e-15
vt 2.12205 -0.508669
vt 14.8071 -0.508669
vt 14.8071 0.508669
f 11/81/17 10/82/17 41/83/17 40/84/17 

vt -2.12205 1.49329
vn 0 -4.55859e-16 -1
vt -14.8071 1.49329
vt -14.8071 0.658643
vt -2.12205 0.658643
f 9/85/18 27/86/18 41/87/18 10/88/18 

vt -2.12205 0.422047
vn 0 0.326314 -0.945261
vt -2.12205 0.814054
vt -14.8071 0.814054
vt -14.8071 0.422047
f 14/89/19 13/90/14 38/91/14 48/92/19 

vt -2.12205 0.200238
vn 2.12969e-19 0.15794 -0.987449
vt -2.12205 0.628345
vt -14.8071 0.628345
vt -14.8071 0.200238
f 15/93/20 14/94/19 48/95/19 47/96/20 

vt -2.12205 -0.0787844
vn -4.25818e-20 -1.80955e-16 -1
vt -2.12205 0.368842
vt -14.8071 0.368842
vt -14.8071 -0.0787844
v 0.0787999 6.9684e-18 -0.0258404
vt -3.10236 -0.0787844
f 16/97/21 15/98/20 47/99/20 46/100/21 52/101/21 

vt -2.12205 -0.368842
vn -2.55563e-19 -0.15794 -0.987449
vt -2.12205 0.0787844
vt -3.10236 0.0787844
vt -14.8071 0.0787844
vt -14.8071 -0.368842
f 17/102/22 16/103/21 52/104/21 46/105/21 45/106/22 

vt -2.12205 -0.628345
vn 0 -0.326314 -0.945261
vt -2.12205 -0.200238
vt -14.8071 -0.200238
vt -14.8071 -0.628345
f 18/107/23 17/108/22 45/109/22 44/110/23 

vt -2.12205 -0.814054
vn 0 -0.514396 -0.857553
vt -2.12205 -0.422047
vt -14.8071 -0.422047
vt -14.8071 -0.814054
f 19/111/24 18/112/23 44/113/23 43/114/24 

vt -2.12205 -0.873746
vn 0 -0.609547 -0.79275
vt -2.12205 -0.528084
vt -14.8071 -0.528084
vt -14.8071 -0.873746
f 5/115/25 19/116/24 43/117/24 42/118/25 

vt 2.12205 -1.49329
vn 0 1.51953e-16 1
vt 14.8071 -1.49329
vt 14.8071 -0.705887
vt 2.12205 -0.705887
f 5/119/26 42/120/26 37/121/26 4/122/26 

g Mesh2 Model

v 0.0427762 0.131304 -0.1004
vt 1.6841 3.95276
vn 0 1 -0
v -0.0427762 0.131304 -0.1004
vt -1.6841 3.95276
v -0.0427762 0.131304 0.0938
vt -1.6841 -3.69291
v 0.0427762 0.131304 0.0938
vt 1.6841 -3.69291
f 53/123/27 54/124/27 55/125/27 56/126/27 

v -0.05572 0.11144 -0.1004
vt 2.1937 4.3874
vn 0 0 -1
vt 1.6841 5.16946
vt -1.6841 5.16946
v 0.05572 0.11144 -0.1004
vt -2.1937 4.3874
v 0.0682427 0.0787999 -0.1004
vt -2.68672 3.10236
v 0.0761149 0.0407898 -0.1004
vt -2.99665 1.6059
v 0.0787999 1.93004e-17 -0.1004
vt -3.10236 7.59859e-16
v 0.0761149 -0.0407898 -0.1004
vt -2.99665 -1.6059
v 0.0682427 -0.0787999 -0.1004
vt -2.68672 -3.10236
v 0.05572 -0.11144 -0.1004
vt -2.1937 -4.3874
v 0.0419364 -0.132593 -0.1004
vt -1.65104 -5.2202
v -0.0419364 -0.132593 -0.1004
vt 1.65104 -5.2202
v -0.05572 -0.11144 -0.1004
vt 2.1937 -4.3874
v -0.0682427 -0.0787999 -0.1004
vt 2.68672 -3.10236
v -0.0761149 -0.0407898 -0.1004
vt 2.99665 -1.6059
v -0.0787999 0 -0.1004
vt 3.10236 0
v -0.0761149 0.0407898 -0.1004
vt 2.99665 1.6059
v -0.0682427 0.0787999 -0.1004
vt 2.68672 3.10236
f 57/127/28 54/128/28 53/129/28 58/130/28 59/131/28 60/132/28 61/133/28 62/134/28 63/135/28 64/136/28 65/137/28 66/138/28 67/139/28 68/140/28 69/141/28 70/142/28 71/143/28 72/144/28 

vt -3.95276 3.41169
vn -0.837826 0.545938 -0
vt -3.95276 2.47825
vn -0.890694 0.454603 -0
v -0.05572 0.11144 0.0938
vt 3.69291 2.47825
vt 3.69291 3.41169
f 54/145/29 57/146/30 73/147/30 55/148/29 

vt -3.95276 3.31047
vt -3.95276 1.9341
vn -0.959582 0.281428 -0
v -0.0682427 0.0787999 0.0938
vt 3.69291 1.9341
vt 3.69291 3.31047
f 57/149/30 72/150/31 74/151/31 73/152/30 

vt -3.95276 2.49302
vt -3.95276 0.964799
vn -0.990905 0.134566 -0
v -0.0761149 0.0407898 0.0938
vt 3.69291 0.964799
vt 3.69291 2.49302
f 72/153/31 71/154/32 75/155/32 74/156/31 

vt -3.95276 1.4056
vt -3.95276 -0.203776
vn -1 -1.80802e-16 -0
v -0.0787999 0 0.0938
vt 3.69291 -0.203776
vt 3.69291 1.4056
f 71/157/32 70/158/33 76/159/33 75/160/32 

vt -3.95276 0.203776
vt -3.95276 -1.4056
vn -0.990905 -0.134566 -0
v -0.0761149 -0.0407898 0.0938
vt 3.69291 -1.4056
vt 3.69291 0.203776
f 70/161/33 69/162/34 77/163/34 76/164/33 

vt -3.95276 -0.964799
vt -3.95276 -2.49302
vn -0.959582 -0.281428 -0
v -0.0682427 -0.0787999 0.0938
vt 3.69291 -2.49302
vt 3.69291 -0.964799
f 69/165/34 68/166/35 78/167/35 77/168/34 

vt -3.95276 -1.9341
vt -3.95276 -3.31047
vn -0.890694 -0.454603 -0
v -0.05572 -0.11144 0.0938
vt 3.69291 -3.31047
vt 3.69291 -1.9341
f 68/169/35 67/170/36 79/171/36 78/172/35 

vt -3.95276 -2.47825
vt -3.95276 -3.47225
vn -0.837826 -0.545938 -0
v -0.0419364 -0.132593 0.0938
vt 3.69291 -3.47225
vt 3.69291 -2.47825
f 67/173/36 66/174/37 80/175/37 79/176/36 

vt 1.65104 3.95276
vn 0 -1 -0
vt -1.65104 3.95276
v 0.0419364 -0.132593 0.0938
vt -1.65104 -3.69291
vt 1.65104 -3.69291
f 66/177/38 65/178/38 81/179/38 80/180/38 

vt 3.95276 -3.47225
vn 0.837826 -0.545938 -0
vt 3.95276 -2.47825
vn 0.890694 -0.454603 -0
v 0.05572 -0.11144 0.0938
vt -3.69291 -2.47825
vt -3.69291 -3.47225
f 65/181/39 64/182/40 82/183/40 81/184/39 

vt 3.95276 -3.31047
vt 3.95276 -1.9341
vn 0.959582 -0.281428 -0
v 0.0682427 -0.0787999 0.0938
vt -3.69291 -1.9341
vt -3.69291 -3.31047
f 64/185/40 63/186/41 83/187/41 82/188/40 

vt 3.95276 -2.49302
vt 3.95276 -0.964799
vn 0.990905 -0.134566 4.16738e-19
v 0.0761149 -0.0407898 0.0938
vt -3.69291 -0.964799
vt -3.69291 -2.49302
f 63/189/41 62/190/42 84/191/42 83/192/41 

vt -3.69291 -1.4056
vt 3.95276 -1.4056
vt 3.95276 0.203776
vn 1 -5.56313e-17 4.83302e-19
vt 1.01734 0.203776
vt -1.01734 0.203776
v 0.0787999 1.93004e-17 0.0938
vt -3.69291 0.203776
f 84/193/42 62/194/42 61/195/43 52/196/43 30/197/43 85/198/43 

vt -1.01734 -0.203776
vt 1.01734 -0.203776
vt 3.95276 -0.203776
vt 3.95276 1.4056
vn 0.990905 0.134566 6.66781e-20
v 0.0761149 0.0407898 0.0938
vt -3.69291 1.4056
vt -3.69291 -0.203776
f 30/199/43 52/200/43 61/201/43 60/202/44 86/203/44 85/204/43 

vt 3.95276 0.964799
vt 3.95276 2.49302
vn 0.959582 0.281428 -0
v 0.0682427 0.0787999 0.0938
vt -3.69291 2.49302
vt -3.69291 0.964799
f 60/205/44 59/206/45 87/207/45 86/208/44 

vt 3.95276 1.9341
vt 3.95276 3.31047
vn 0.890694 0.454603 -0
v 0.05572 0.11144 0.0938
vt -3.69291 3.31047
vt -3.69291 1.9341
f 59/209/45 58/210/46 88/211/46 87/212/45 

vt 3.95276 2.47825
vt 3.95276 3.41169
vn 0.837826 0.545938 -0
vt -3.69291 3.41169
vt -3.69291 2.47825
f 58/213/46 53/214/47 56/215/47 88/216/46 

vn 0 0 1
vt -3.10236 0
vt 3.10236 7.59859e-16
f 55/129/48 73/130/48 74/131/48 75/132/48 76/217/48 77/134/48 78/135/48 79/136/48 80/137/48 81/138/48 82/139/48 83/140/48 84/141/48 85/218/48 86/143/48 87/144/48 88/127/48 56/128/48 

